<mxfile host="app.diagrams.net" modified="2023-06-02T14:10:04.992Z" agent="Mozilla/5.0 (Macintosh; Intel Mac OS X 10_15_7) AppleWebKit/605.1.15 (KHTML, like Gecko) Version/14.1.2 Safari/605.1.15" etag="KNnExnTYAvRab_ek1Th0" version="21.3.4" type="device">
  <diagram name="Page-1" id="g6MJ2BGsy2H--Gs6YVRM">
    <mxGraphModel dx="954" dy="647" grid="1" gridSize="10" guides="1" tooltips="1" connect="1" arrows="1" fold="1" page="1" pageScale="1" pageWidth="827" pageHeight="1169" math="0" shadow="0">
      <root>
        <mxCell id="0" />
        <mxCell id="1" parent="0" />
        <mxCell id="1H-UabXNkRfVxXWJ81TK-16" style="edgeStyle=orthogonalEdgeStyle;rounded=0;orthogonalLoop=1;jettySize=auto;html=1;exitX=1;exitY=0.5;exitDx=0;exitDy=0;entryX=0;entryY=0.5;entryDx=0;entryDy=0;dashed=1;" parent="1" source="ymWy0TGJqXgR9-VHRsqB-4" target="ymWy0TGJqXgR9-VHRsqB-16" edge="1">
          <mxGeometry relative="1" as="geometry" />
        </mxCell>
        <mxCell id="ymWy0TGJqXgR9-VHRsqB-4" value="Blockchain A" style="rounded=0;whiteSpace=wrap;html=1;fillColor=#dae8fc;strokeColor=#6c8ebf;" parent="1" vertex="1">
          <mxGeometry x="70" y="180" width="120" height="60" as="geometry" />
        </mxCell>
        <mxCell id="ymWy0TGJqXgR9-VHRsqB-5" value="Bridge listens for Events / State Changes" style="text;html=1;strokeColor=none;fillColor=none;align=center;verticalAlign=middle;whiteSpace=wrap;rounded=0;" parent="1" vertex="1">
          <mxGeometry x="184" y="180" width="152" height="20" as="geometry" />
        </mxCell>
        <mxCell id="ymWy0TGJqXgR9-VHRsqB-6" value="Proofs / Confirmations submitted by Bridge" style="text;html=1;strokeColor=none;fillColor=none;align=center;verticalAlign=middle;whiteSpace=wrap;rounded=0;" parent="1" vertex="1">
          <mxGeometry x="190" y="240" width="150" height="20" as="geometry" />
        </mxCell>
        <mxCell id="1H-UabXNkRfVxXWJ81TK-18" style="edgeStyle=orthogonalEdgeStyle;rounded=0;orthogonalLoop=1;jettySize=auto;html=1;exitX=0;exitY=1;exitDx=0;exitDy=0;entryX=0.992;entryY=0.867;entryDx=0;entryDy=0;entryPerimeter=0;dashed=1;" parent="1" source="ymWy0TGJqXgR9-VHRsqB-16" target="ymWy0TGJqXgR9-VHRsqB-4" edge="1">
          <mxGeometry relative="1" as="geometry" />
        </mxCell>
        <mxCell id="ymWy0TGJqXgR9-VHRsqB-16" value="" style="ellipse;whiteSpace=wrap;html=1;fillColor=#1ba1e2;fontColor=#ffffff;strokeColor=#006EAF;" parent="1" vertex="1">
          <mxGeometry x="329" y="180" width="61" height="60" as="geometry" />
        </mxCell>
        <mxCell id="ymWy0TGJqXgR9-VHRsqB-17" value="Bridge Nodes/Relay" style="text;html=1;strokeColor=none;fillColor=none;align=center;verticalAlign=middle;whiteSpace=wrap;rounded=0;" parent="1" vertex="1">
          <mxGeometry x="361" y="295" width="60" height="30" as="geometry" />
        </mxCell>
        <mxCell id="1H-UabXNkRfVxXWJ81TK-22" style="edgeStyle=orthogonalEdgeStyle;rounded=0;orthogonalLoop=1;jettySize=auto;html=1;exitX=0;exitY=0.75;exitDx=0;exitDy=0;entryX=0.984;entryY=0.85;entryDx=0;entryDy=0;entryPerimeter=0;dashed=1;" parent="1" source="ymWy0TGJqXgR9-VHRsqB-21" target="1H-UabXNkRfVxXWJ81TK-13" edge="1">
          <mxGeometry relative="1" as="geometry">
            <Array as="points">
              <mxPoint x="560" y="145" />
              <mxPoint x="560" y="230" />
            </Array>
          </mxGeometry>
        </mxCell>
        <mxCell id="ymWy0TGJqXgR9-VHRsqB-21" value="Blockchain B" style="rounded=0;whiteSpace=wrap;html=1;fillColor=#d5e8d4;strokeColor=#82b366;" parent="1" vertex="1">
          <mxGeometry x="600" y="100" width="120" height="60" as="geometry" />
        </mxCell>
        <mxCell id="1H-UabXNkRfVxXWJ81TK-10" value="Events / State Changes broadcasted through smart contract" style="text;html=1;strokeColor=none;fillColor=none;align=center;verticalAlign=middle;whiteSpace=wrap;rounded=0;" parent="1" vertex="1">
          <mxGeometry x="410" y="350" width="190" height="70" as="geometry" />
        </mxCell>
        <mxCell id="1H-UabXNkRfVxXWJ81TK-24" style="edgeStyle=orthogonalEdgeStyle;rounded=0;orthogonalLoop=1;jettySize=auto;html=1;exitX=0;exitY=0.75;exitDx=0;exitDy=0;entryX=1;entryY=1;entryDx=0;entryDy=0;dashed=1;" parent="1" source="1H-UabXNkRfVxXWJ81TK-11" target="1H-UabXNkRfVxXWJ81TK-12" edge="1">
          <mxGeometry relative="1" as="geometry">
            <Array as="points">
              <mxPoint x="500" y="355" />
              <mxPoint x="500" y="281" />
            </Array>
          </mxGeometry>
        </mxCell>
        <mxCell id="1H-UabXNkRfVxXWJ81TK-11" value="Blockchain C" style="rounded=0;whiteSpace=wrap;html=1;fillColor=#fff2cc;strokeColor=#d6b656;" parent="1" vertex="1">
          <mxGeometry x="600" y="310" width="120" height="60" as="geometry" />
        </mxCell>
        <mxCell id="1H-UabXNkRfVxXWJ81TK-25" style="edgeStyle=orthogonalEdgeStyle;rounded=0;orthogonalLoop=1;jettySize=auto;html=1;exitX=1;exitY=0.5;exitDx=0;exitDy=0;entryX=-0.025;entryY=0.133;entryDx=0;entryDy=0;entryPerimeter=0;dashed=1;" parent="1" source="1H-UabXNkRfVxXWJ81TK-12" target="1H-UabXNkRfVxXWJ81TK-11" edge="1">
          <mxGeometry relative="1" as="geometry">
            <Array as="points">
              <mxPoint x="520" y="260" />
              <mxPoint x="520" y="318" />
            </Array>
          </mxGeometry>
        </mxCell>
        <mxCell id="1H-UabXNkRfVxXWJ81TK-12" value="" style="ellipse;whiteSpace=wrap;html=1;fillColor=#1ba1e2;fontColor=#ffffff;strokeColor=#006EAF;" parent="1" vertex="1">
          <mxGeometry x="360" y="230" width="61" height="60" as="geometry" />
        </mxCell>
        <mxCell id="1H-UabXNkRfVxXWJ81TK-21" style="edgeStyle=orthogonalEdgeStyle;rounded=0;orthogonalLoop=1;jettySize=auto;html=1;exitX=1;exitY=0;exitDx=0;exitDy=0;entryX=0;entryY=0.25;entryDx=0;entryDy=0;dashed=1;" parent="1" source="1H-UabXNkRfVxXWJ81TK-13" target="ymWy0TGJqXgR9-VHRsqB-21" edge="1">
          <mxGeometry relative="1" as="geometry" />
        </mxCell>
        <mxCell id="1H-UabXNkRfVxXWJ81TK-13" value="" style="ellipse;whiteSpace=wrap;html=1;fillColor=#1ba1e2;fontColor=#ffffff;strokeColor=#006EAF;" parent="1" vertex="1">
          <mxGeometry x="390" y="180" width="61" height="60" as="geometry" />
        </mxCell>
        <mxCell id="1H-UabXNkRfVxXWJ81TK-14" value="" style="ellipse;whiteSpace=wrap;html=1;fillColor=#1ba1e2;fontColor=#ffffff;strokeColor=#006EAF;" parent="1" vertex="1">
          <mxGeometry x="360" y="130" width="61" height="60" as="geometry" />
        </mxCell>
        <mxCell id="1H-UabXNkRfVxXWJ81TK-27" value="Events / State Changes broadcasted through smart contract" style="text;html=1;strokeColor=none;fillColor=none;align=center;verticalAlign=middle;whiteSpace=wrap;rounded=0;" parent="1" vertex="1">
          <mxGeometry x="410" y="60" width="190" height="70" as="geometry" />
        </mxCell>
        <mxCell id="1H-UabXNkRfVxXWJ81TK-28" value="Communication through a Blockchain Bridge" style="text;html=1;align=center;verticalAlign=middle;whiteSpace=wrap;rounded=0;fillColor=#1ba1e2;fontColor=#ffffff;strokeColor=#006EAF;fontStyle=1;fontSize=16;" parent="1" vertex="1">
          <mxGeometry x="70" y="410" width="650" height="30" as="geometry" />
        </mxCell>
      </root>
    </mxGraphModel>
  </diagram>
</mxfile>
